<?xml version="1.0" encoding="utf-8"?>
<!-- Generator: Adobe Illustrator 21.1.0, SVG Export Plug-In . SVG Version: 6.00 Build 0)  -->
<svg version="1.1" id="Layer_1" xmlns="http://www.w3.org/2000/svg" xmlns:xlink="http://www.w3.org/1999/xlink" x="0px" y="0px"
	 viewBox="0 0 506.6274 175" style="enable-background:new 0 0 506.6274 175;" xml:space="preserve">
<style type="text/css">
	.st0{fill:#026BB0;}
	.st1{fill:#F5AA00;}
	.st2{fill:#E51D74;}
	.st3{fill:#78B517;}
	.st4{fill:#585857;}
</style>
<g>
	<polygon class="st0" points="304.5547,145.8325 355.07,175 355.07,116.665 456.1116,175 456.1116,116.665 304.5547,29.168 	"/>
	<polygon class="st1" points="355.0722,175 405.5875,145.8325 355.0722,116.665 	"/>
	<polygon class="st1" points="456.1121,0 405.5913,29.1675 456.1121,58.335 	"/>
	<polygon class="st2" points="456.1121,0 456.1121,58.335 355.0706,0 304.5552,29.1675 456.1121,116.6645 456.1121,174.9995 
		506.6274,145.832 506.6274,29.1675 	"/>
	<polygon class="st3" points="355.0722,0 304.5569,29.1675 355.0722,58.335 405.5875,29.1675 	"/>
</g>
<g>
	<path class="st4" d="M49.1087,84.438l16.5392,7.2288c1.0665,0.4827,2.6643,1.2843,4.7992,2.4092
		c1.3835,0.8467,2.0763,1.845,2.0763,2.9993c0,1.1532-0.6927,3.0365-2.0763,5.6512l-2.0763,3.9222l-1.9612,3.8071l-2.1913,4.1489
		c-10.3049,8.6096-20.456,12.9181-30.4501,12.9181c-5.614,0-10.0349-1.8848-13.2644-5.6512
		c-3.2295-3.77-4.8443-8.4964-4.8443-14.1874c0-2.3835,0.2303-4.691,0.6918-6.9195c0.3066-1.6911,1.1145-4.4591,2.4226-8.305
		l4.3828-10.15c-2.3845,7.3057-3.5759,13.4575-3.5759,18.455c0,12.1467,5.2031,18.2232,15.6091,18.2232
		c5.5494,0,11.3486-1.7289,17.4003-5.187c6.0497-3.4618,10.5388-7.5724,13.4709-12.3372L45.768,92.1044
		c-2.3117-1.1532-3.465-2.3828-3.465-3.6894c0-1.9983,1.3075-4.8426,3.9222-8.5336c1.9983-2.9967,4.0374-5.5344,6.1137-7.6107
		c2.4588-2.3829,5.4209-4.419,8.8807-6.109c3.7664-1.846,7.2261-2.7681,10.3813-2.7681c2.3829,0,3.575,1,3.575,2.9982
		l-0.8078,4.2676l-0.923,3.1144c-1.768-0.845-3.9611-1.2684-6.5741-1.2684C60.7959,72.5059,54.8753,76.4825,49.1087,84.438z"/>
	<path class="st4" d="M146.306,91.4214v8.5353h-32.0308l-0.1151,0.3463c-1.5394,7.8425-4.691,14.8404-9.4583,20.9912
		c-3.9222,5.0771-7.2277,7.6143-9.9188,7.6143c-2.9993,0-7.7682-3.3837-14.3035-10.151c4.4591,1.3855,7.5735,2.0763,9.3431,2.0763
		c4.9975,0,9.4195-2.3065,13.2635-6.9195c3.3058-3.8479,5.6123-8.4981,6.9215-13.9571H97.3198
		c-2.9993,0-4.9603-0.1151-5.8814-0.3463c-2.0019-0.3836-3.6157-1.3835-4.8453-2.9982c-1.2312-1.6147-1.846-3.421-1.846-5.4209
		c0-3.691,1.1924-7.9587,3.5768-12.8029c3.9203-7.8435,7.9189-11.7648,11.995-11.7648c4.3049,0,7.9576,3.2057,10.9569,9.6177
		c2.4608,5.2536,3.6919,10.3147,3.6919,15.1805h31.338C146.306,91.422,146.306,91.4214,146.306,91.4214z M109.0846,91.4214
		c-1.1605-10.6115-4.1401-15.9173-8.9374-15.9173c-2.6307,0-5.1074,1.9374-7.428,5.809c-1.24,2.0923-1.8584,3.9522-1.8584,5.5778
		c0,1.9354,0.7724,3.2526,2.3209,3.9506c0.8522,0.3872,1.7041,0.5802,2.5547,0.5802L109.0846,91.4214L109.0846,91.4214z"/>
	<path class="st4" d="M198.6696,87.3841c-4.2288,0-8.3439,1.0779-12.3404,3.2305c-1.5394,0.8467-4.4607,2.8831-8.7656,6.1126
		c-2.9229,2.1532-5.1906,3.2295-6.8064,3.2295h-47.9468v-8.5353h53.7147c5.1499-4.2536,9.6885-6.9587,13.6091-8.1192
		c-0.3846-0.1549-5.4209-2.7051-15.1094-7.6541c-6.6893-3.4024-11.4585-5.1039-14.3016-5.1039c-0.5385,0-1.001,0-1.3835,0
		c4.4591-3.9213,7.3821-5.8824,8.7656-5.8824c-0.2303,0,5.9205,2.6529,18.4541,7.9587c12.9181,5.4607,21.6076,8.6504,26.0683,9.5734
		l-3.8071,5.8824l-3.4597-0.4615c0.3066,1.0779,0.845,2.0762,1.6138,2.9993c1.3855,0.5385,3.6512,0.8848,6.8064,1.0372
		c2.1506,0.0779,4.99-0.1025,8.4518-0.2316c4.0746-0.1011,3.01,0.0013,3.3961,0.0013v8.5353h-15.54
		c-4.537,0-7.382-0.923-8.5353-2.7681C201.2453,96.7269,200.285,93.4592,198.6696,87.3841z M170.4099,115.6428l5.297-4.4679
		l5.9773,6.1084l-5.3909,4.7017L170.4099,115.6428z"/>
	<path class="st4" d="M247.4309,65.8156c4.1525,4.3074,6.2288,9.2668,6.2288,14.8791c0,2.3065-0.2303,4.2295-0.6927,5.7672
		c-0.7688,2.3065-1.8848,5.7291-3.3447,10.2651c-0.0779,0.1549-0.5385,1.2312-1.3835,3.2295h-25.8045v-8.5353h24.9966
		c0.0763-0.9266,0.1914-2.3153,0.3454-4.1701c0-4.4803-1.6545-9.5389-4.9585-15.1786L247.4309,65.8156z M248.8144,52.4357
		l-5.4245,4.5005l-5.8762-6.002l5.4192-4.8426L248.8144,52.4357z"/>
</g>
</svg>
